# AST/ASF file generated using VICON BodyLanguage
# -----------------------------------------------
:version 1.10
:name VICON
:units
  mass 1.0
  length 0.45
  angle deg
:documentation
   .ast/.asf automatically generated from VICON data using
   VICON BodyBuilder and BodyLanguage model FoxedUp or BRILLIANT.MOD
:root
   order TX TY TZ RX RY RZ
   axis XYZ
   position 0 0 0  
   orientation 0 0 0 
:bonedata
  begin
     id 1 
     name lhipjoint
     direction 0.671379 -0.66392 0.329334 
     length 2.38647 
     axis 0 0 0  XYZ
  end
  begin
     id 2 
     name lfemur
     direction 0.34202 -0.939693 0  
     length 6.48179  
     axis 0 0 20  XYZ
    dof rx ry rz
    limits (-160.0 20.0)
           (-70.0 70.0)
           (-60.0 70.0)
  end
  begin
     id 3 
     name ltibia
     direction 0.34202 -0.939693 0   
     length 6.86524   
     axis 0 0 20   XYZ
    dof rx
    limits (-10.0 170.0)
  end
  begin
     id 4 
     name lfoot
     direction 0.204886 -0.562919 0.800715   
     length 1.73031   
     axis -90 7.62852e-016 20   XYZ
    dof rx rz
    limits (-45.0 90.0)
           (-70.0 20.0)
  end
  begin
     id 5 
     name ltoes
     direction 1.53548e-011 -4.21841e-011 1   
     length 0.828161   
     axis -90 7.62852e-016 20   XYZ
    dof rx
    limits (-90.0 20.0)
  end
  begin
     id 6 
     name rhipjoint
     direction -0.662732 -0.670855 0.332775   
     length 2.3618  
     axis 0 0 0  XYZ 
  end
  begin
     id 7 
     name rfemur
     direction -0.34202 -0.939693 0   
     length 6.3025   
     axis 0 0 -20   XYZ
    dof rx ry rz
    limits (-160.0 20.0)
           (-70.0 70.0)
           (-70.0 60.0)
  end
  begin
     id 8 
     name rtibia
     direction -0.34202 -0.939693 0   
     length 6.8732   
     axis 0 0 -20   XYZ
    dof rx
    limits (-10.0 170.0)
 end
 begin
     id 9 
     name rfoot
     direction -0.173856 -0.477665 0.861168   
     length 1.54784  
     axis -90 -7.62852e-016 -20   XYZ
    dof rx rz
    limits (-45.0 90.0)
           (-20.0 70.0)
  end
  begin
     id 10 
     name rtoes
     direction -1.53562e-011 -4.21802e-011 1   
     length 0.759618   
     axis -90 -7.62852e-016 -20   XYZ
    dof rx
    limits (-90.0 20.0)
  end
  begin
     id 11 
     name lowerback
     direction -0.0278357 0.999497 -0.0151789   
     length 1.97203   
     axis 0 0 0   XYZ
    dof rx ry rz
    limits (-20.0 45.0)
           (-30.0 30.0)
           (-30.0 30.0)
  end
  begin
     id 12 
     name upperback
     direction -0.00360622 0.997542 0.0699804   
     length 1.94709   
     axis 0 0 0   XYZ
    dof rx ry rz
    limits (-20.0 45.0)
           (-30.0 30.0)
           (-30.0 30.0)
  end
  begin
     id 13 
     name thorax
     direction 0.00907706 0.997048 0.0762461   
     length 1.95722   
     axis 0 0 0   XYZ
    dof rx ry rz
    limits (-20.0 45.0)
           (-30.0 30.0)
           (-30.0 30.0)
  end
  begin
     id 14 
     name lowerneck
     direction -0.0481835 0.99872 -0.0153927   
     length 1.63078   
     axis 0 0 0   XYZ
    dof rx ry rz
    limits (-20.0 45.0)
           (-30.0 30.0)
           (-30.0 30.0)
  end
  begin
     id 15 
     name upperneck
     direction 0.0859716 0.979226 -0.183644   
     length 1.62591   
     axis 0 0 0   XYZ
    dof rx ry rz
    limits (-20.0 45.0)
           (-30.0 30.0)
           (-30.0 30.0)
  end
  begin
     id 16
     name head
     direction 0.0324821 0.997629 -0.0606773  
     length 1.64811  
     axis 0 0 0   XYZ
    dof rx ry rz
    limits (-20.0 45.0)
           (-30.0 30.0)
           (-30.0 30.0)
  end
  begin
     id 17 
     name lclavicle
     direction 0.939609 0.311019 0.142835  
     length 3.70647  
     axis 0 0 0   XYZ
    dof ry rz
    limits (-20.0 10.0)
           (0.0 20.0)
  end
  begin
     id 18 
     name lhumerus
     direction 1 -4.48963e-011 -1.59838e-027   
     length 4.59207   
     axis 180 -30 -90   XYZ
    dof rx ry rz
    limits (-60.0 90.0)
           (-90.0 90.0)
           (-90.0 90.0)
  end
  begin
     id 19
     name lradius
     direction 1 -4.48957e-011 -1.3483e-026   
     length 2.98109   
     axis 180 -30 -90   XYZ
    dof rx
    limits (-10.0 170.0)
  end
  begin
     id 20
     name lwrist
     direction 1 -4.48954e-011 -3.11579e-026   
     length 1.49055   
     axis 2.00652e-014 90 90   XYZ
    dof ry
    limits (-180.0 0.0)
 end
  begin
     id 21 
     name lhand
     direction 1 -4.4911e-011 -6.23158e-026   
     length 0.480203   
     axis 3.97628e-014 90 90   XYZ
    dof rx rz
    limits (-90.0 90.0)
           (-45.0 45.0)
  end
  begin
     id 22 
     name lfingers
     direction 1 -4.48893e-011 -1.24632e-025   
     length 0.387152   
     axis 7.95256e-014 90 90   XYZ
    dof rx
    limits (0.0 90.0)
  end
  begin
     id 23
     name lthumb
     direction 0.707107 -6.35013e-011 0.707107   
     length 0.555875   
     axis -90 45 2.85299e-015   XYZ
    dof rx rz
    limits (-45.0 45.0)
           (-45.0 45.0)
  end
  begin
     id 24 
     name rclavicle
     direction -0.950396 0.30392 0.0661859   
     length 3.70894  
     axis 0 0 0   XYZ 
    dof ry rz
    limits (-10.0 20.0)
           (-20.0 0.0)
  end
  begin
     id 25 
     name rhumerus
     direction -1 -4.48957e-011 -2.96677e-027  
     length 4.76508   
     axis 180 30 90   XYZ
    dof rx ry rz
    limits (-90.0 60.0)
           (-90.0 90.0)
           (-90.0 90.0)
  end
  begin
     id 26 
     name rradius
     direction -1 -4.48974e-011 -1.44501e-026   
     length 2.78902   
     axis 180 30 90   XYZ
    dof rx
    limits (-10.0 170.0)
  end
  begin
     id 27 
     name rwrist
     direction -1 -4.48978e-011 -3.11579e-026   
     length 1.39451   
     axis 2.00652e-014 -90 -90   XYZ
    dof ry
    limits (-180.0 0.0)
  end
  begin
     id 28
     name rhand
     direction -1 -4.48956e-011 -6.23158e-026   
     length 0.721303   
     axis 3.97628e-014 -90 -90   XYZ
    dof rx rz
    limits (-90.0 90.0)
           (-45.0 45.0)
  end
  begin
     id 29
     name rfingers
     direction -1 -4.4899e-011 -1.24632e-025   
     length 0.581533   
     axis 7.95256e-014 -90 -90   XYZ
    dof rx
    limits (0.0 90.0)
  end
  begin
     id 30
     name rthumb
     direction -0.707107 -6.34911e-011 0.707107   
     length 0.834968   
     axis -90 -45 -2.85299e-015   XYZ
    dof rx rz
    limits (-45.0 45.0)
           (-45.0 45.0)
  end
:hierarchy
  begin
    root lhipjoint rhipjoint lowerback
    lhipjoint lfemur
    lfemur ltibia
    ltibia lfoot
    lfoot ltoes
    rhipjoint rfemur
    rfemur rtibia
    rtibia rfoot
    rfoot rtoes
    lowerback upperback
    upperback thorax
    thorax lowerneck lclavicle rclavicle
    lowerneck upperneck
    upperneck head
    lclavicle lhumerus
    lhumerus lradius
    lradius lwrist
    lwrist lhand lthumb
    lhand lfingers
    rclavicle rhumerus
    rhumerus rradius
    rradius rwrist
    rwrist rhand rthumb
    rhand rfingers
  end

#!OML:ASF I:\salsa\salsa 7_09\Patient 1\Session 1\dancerfemale.ASF
:FULLY-SPECIFIED
:DEGREES
831
root 19.1325 15.7207 -2.53422 -316.732 -440.083 326.57
lowerback 3.43506 -1.86268 -0.16605
upperback -6.05843 -2.38219 3.94841
thorax -8.11904 -1.07999 4.52178
lowerneck 5.44349 -2.58973 -5.03758
upperneck 13.4174 -3.57306 -5.47275
head 3.38815 -2.39141 -0.987478
rclavicle -3.88376e-014 -3.97569e-015
rhumerus -47.5669 -22.6826 -63.4954
rradius 48.663
rwrist -14.4323
rhand 3.22445 56.1644
rfingers 7.12502
rthumb 28.675 28.3452
lclavicle -3.88376e-014 -3.97569e-015
lhumerus -47.4151 24.2347 49.0781
lradius 144.996
lwrist -24.8607
lhand -32.4768 43.7061
lfingers 7.12502
lthumb -5.70906 433.609
rfemur -27.4012 -1.57567 26.409
rtibia 39.2064
rfoot -24.6734 3.56908
rtoes -20.0433
lfemur -7.06572 -3.78601 -21.32
ltibia 43.1475
lfoot -16.6361 -0.0930438
ltoes -28.2801
832
root 19.348 15.7336 -2.55421 -326.947 -440.582 337.055
lowerback 3.93711 -2.35813 -2.29953
upperback -6.03172 -3.21417 3.7006
thorax -8.22623 -1.35381 5.57086
lowerneck 4.43845 -1.80842 -4.58424
upperneck 13.4146 -2.41791 -5.44768
head 3.568 -1.80154 -1.05725
rclavicle -1.38124e-014 9.54166e-015
rhumerus -44.8893 -24.0936 -64.1876
rradius 45.8471
rwrist -11.9894
rhand 3.63361 57.0183
rfingers 7.12502
rthumb 29.0658 29.2659
lclavicle -1.38124e-014 9.54166e-015
lhumerus -48.8284 23.9315 48.855
lradius 145.35
lwrist -24.5195
lhand -32.9464 43.5353
lfingers 7.12502
lthumb -6.16249 433.426
rfemur -29.8619 -0.301527 24.5826
rtibia 41.5185
rfoot -23.5011 -0.0722457
rtoes -20.5133
lfemur -6.8852 -3.94703 -23.2952
ltibia 41.0227
lfoot -17.3067 0.452598
ltoes -27.4071
833
root 19.5599 15.7427 -2.58462 -339.56 -440.596 349.738
lowerback 4.60424 -2.90455 -4.6807
upperback -5.8548 -4.17161 3.32211
thorax -8.1981 -1.68271 6.64114
lowerneck 3.4607 -1.11109 -3.97514
upperneck 13.2756 -1.39104 -5.3481
head 3.70077 -1.25627 -1.1199
rclavicle 4.6761e-014 -1.25234e-014
rhumerus -42.1213 -26.266 -64.8388
rradius 42.5114
rwrist -8.90777
rhand 3.88309 57.7204
rfingers 7.12502
rthumb 29.3041 30.0093
lclavicle 4.6761e-014 -1.25234e-014
lhumerus -50.2603 23.5298 48.608
lradius 145.744
lwrist -24.3176
lhand -33.0689 43.4697
lfingers 7.12502
lthumb -6.28073 433.357
rfemur -32.6691 0.289258 22.6619
rtibia 44.6975
rfoot -22.0334 -3.23808
rtoes -21.1061
lfemur -6.95176 -4.08886 -25.3006
ltibia 39.6095
lfoot -17.4969 0.197533
ltoes -26.7986
834
root 19.7669 15.7338 -2.6187 -352.705 -440.057 362.487
lowerback 5.67003 -3.39183 -7.16735
upperback -5.4775 -5.11959 2.81866
thorax -8.13343 -2.01266 7.66012
lowerneck 2.63013 -0.521149 -3.24634
upperneck 12.8665 -0.53793 -5.2081
head 3.71532 -0.775408 -1.18062
rclavicle 2.86281e-014 8.94531e-015
rhumerus -39.5615 -29.158 -65.3872
rradius 39.0054
rwrist -5.45277
rhand 3.92668 58.1609
rfingers 7.12502
rthumb 29.3457 30.4571
lclavicle 2.86281e-014 8.94531e-015
lhumerus -51.2138 22.7514 48.8836
lradius 145.966
lwrist -24.0508
lhand -33.5327 44.3345
lfingers 7.12502
lthumb -6.72849 434.208
rfemur -35.3459 0.274053 20.7583
rtibia 48.4381
rfoot -20.1329 -6.10402
rtoes -21.672
lfemur -6.75876 -4.24393 -27.3505
ltibia 38.7024
lfoot -17.5145 -0.393808
ltoes -26.6763
835
root 19.9659 15.711 -2.65241 -365.09 -439.07 374.007
lowerback 7.18383 -3.71515 -9.74471
upperback -4.97438 -5.96068 2.19227
thorax -8.16424 -2.29194 8.62708
lowerneck 1.95973 -0.0110328 -2.73045
upperneck 12.401 0.158132 -4.75897
head 3.68246 -0.367475 -1.10018
rclavicle 1.64246e-014 2.08724e-014
rhumerus -37.6976 -32.3795 -65.7182
rradius 35.9644
rwrist -2.27242
rhand 4.29932 58.5299
rfingers 7.12502
rthumb 29.7014 30.889
lclavicle 1.64246e-014 2.08724e-014
lhumerus -51.5693 21.6454 49.7572
lradius 145.909
lwrist -23.9972
lhand -33.7591 44.6054
lfingers 7.12502
lthumb -6.94699 434.471
rfemur -37.5133 -0.0836089 18.8074
rtibia 52.2239
rfoot -18.3728 -8.50785
rtoes -20.8648
lfemur -6.06104 -4.30206 -29.5116
ltibia 37.9556
lfoot -17.487 -1.16161
ltoes -26.637
836
root 20.1562 15.6763 -2.6808 -375.012 -437.831 382.798
lowerback 8.94904 -3.80444 -12.0448
upperback -4.45679 -6.57999 1.49107
thorax -8.36369 -2.47512 9.36614
lowerneck 1.60886 0.304284 -2.39695
upperneck 11.8661 0.550322 -4.12523
head 3.56015 -0.108515 -0.931736
rclavicle 2.58296e-014 1.6201e-014
rhumerus -36.799 -35.369 -65.8731
rradius 33.9167
rwrist -0.085365
rhand 5.00868 58.2354
rfingers 7.12502
rthumb 30.3783 30.7173
lclavicle 2.58296e-014 1.6201e-014
lhumerus -51.2605 20.1553 51.3025
lradius 145.568
lwrist -24.302
lhand -33.3869 43.9755
lfingers 7.12502
lthumb -6.58773 433.853
rfemur -39.1448 -1.06846 17.3631
rtibia 56.0082
rfoot -17.2007 -10.4798
rtoes -22.7983
lfemur -5.08377 -4.10708 -31.5487
ltibia 37.339
lfoot -17.3931 -2.04082
ltoes -26.5294
837
root 20.3283 15.6512 -2.69854 -381.343 -436.671 387.902
lowerback 10.7079 -3.72518 -13.65
upperback -4.00284 -6.96272 0.900918
thorax -8.71357 -2.56695 9.82133
lowerneck 1.53794 0.476807 -2.14152
upperneck 11.213 0.744963 -3.63052
head 3.34345 0.0449715 -0.801244
rclavicle -4.56459e-014 4.72114e-015
rhumerus -36.5605 -37.5834 -66.0203
rradius 32.7787
rwrist 0.957717
rhand 5.47966 57.0589
rfingers 7.12502
rthumb 30.8274 29.6247
lclavicle -4.56459e-014 4.72114e-015
lhumerus -50.3753 18.4354 53.4806
lradius 145.011
lwrist -24.7297
lhand -32.4355 42.7318
lfingers 7.12502
lthumb -5.66918 432.636
rfemur -40.4575 -2.17814 16.7264
rtibia 59.366
rfoot -16.2839 -10.5227
rtoes -24.9373
lfemur -4.0215 -3.56491 -33.0285
ltibia 36.7937
lfoot -17.3208 -2.92759
ltoes -26.3799
838
root 20.4765 15.6353 -2.70212 -384.374 -435.888 389.813
lowerback 12.0771 -3.57374 -14.4163
upperback -3.62572 -7.09832 0.537579
thorax -9.02623 -2.58162 9.9936
lowerneck 1.30297 0.632718 -2.14775
upperneck 10.8926 0.92512 -3.05713
head 3.27228 0.168465 -0.605793
rclavicle 9.92075e-014 2.77305e-014
rhumerus -36.5427 -38.7958 -66.2569
rradius 32.193
rwrist 1.02003
rhand 5.81551 56.0107
rfingers 7.12502
rthumb 31.1475 28.6374
lclavicle 9.92075e-014 2.77305e-014
lhumerus -49.0745 16.6214 56.268
lradius 144.35
lwrist -25.1732
lhand -31.7285 41.3887
lfingers 7.12502
lthumb -4.98657 431.31
rfemur -41.5547 -3.42955 17.1256
rtibia 62.2484
rfoot -15.6319 -5.70322
rtoes -24.9673
lfemur -3.12621 -2.67946 -33.7299
ltibia 36.396
lfoot -17.419 -3.92409
ltoes -25.9618
839
root 20.602 15.6307 -2.68853 -385.497 -435.484 390.12
lowerback 12.8314 -3.42362 -14.5063
upperback -3.31038 -7.03056 0.308482
thorax -9.14798 -2.55152 9.84468
lowerneck 0.596443 0.791902 -2.51254
upperneck 11.1517 1.1131 -2.15784
head 3.48624 0.275121 -0.244154
rclavicle -5.63263e-014 2.34442e-014
rhumerus -36.588 -39.1291 -66.6402
rradius 31.9577
rwrist 0.476535
rhand 6.49705 55.5414
rfingers 7.12502
rthumb 31.7968 28.295
lclavicle -5.63263e-014 2.34442e-014
lhumerus -47.3493 14.7834 59.775
lradius 143.588
lwrist -26.1545
lhand -31.3727 40.6839
lfingers 7.12502
lthumb -4.64305 430.613
rfemur -42.5475 -4.70829 18.2736
rtibia 64.5506
rfoot -14.8929 -2.31417
rtoes -23.5133
lfemur -2.57689 -1.61536 -33.9222
ltibia 36.1598
lfoot -17.6271 -4.74156
ltoes -25.6205
840
root 20.7096 15.633 -2.66076 -385.643 -435.33 389.655
lowerback 13.1635 -3.30121 -14.1254
upperback -3.02224 -6.84611 0.133679
thorax -9.12121 -2.50541 9.43032
lowerneck -0.141552 0.896938 -2.95834
upperneck 11.3991 1.23259 -1.28152
head 3.70455 0.346931 0.127333
rclavicle 1.25009e-014 1.88348e-014
rhumerus -36.7298 -38.8929 -67.1188
rradius 31.9766
rwrist -0.0575396
rhand 7.27034 55.576
rfingers 7.12502
rthumb 32.533 28.4784
lclavicle 1.25009e-014 1.88348e-014
lhumerus -45.2469 13.0058 63.7851
lradius 142.64
lwrist -27.4951
lhand -31.259 40.4838
lfingers 7.12502
lthumb -4.53319 430.415
rfemur -43.3395 -5.97935 19.9631
rtibia 66.333
rfoot -14.1054 -0.391198
rtoes -24.1608
lfemur -2.28794 -0.58203 -33.8791
ltibia 36.1258
lfoot -17.934 -4.92972
ltoes -26.2183
841
root 20.801 15.6367 -2.62532 -384.667 -435.361 388.155
lowerback 13.313 -3.18127 -13.3352
upperback -2.81121 -6.56376 0.0250931
thorax -9.12679 -2.42592 8.83163
lowerneck -0.49599 0.842294 -3.1857
upperneck 11.3961 1.14252 -0.759281
head 3.76857 0.31754 0.338432
rclavicle -6.04259e-014 -2.03506e-014
rhumerus -37.1796 -38.175 -67.5109
rradius 32.3239
rwrist -0.5874
rhand 7.63783 55.8015
rfingers 7.12502
rthumb 32.8826 28.7766
lclavicle -6.04259e-014 -2.03506e-014
lhumerus -43.1196 11.1314 67.9367
lradius 141.634
lwrist -28.3059
lhand -31.521 40.7322
lfingers 7.12502
lthumb -4.78621 430.658
rfemur -43.7478 -7.20516 22.1948
rtibia 67.5851
rfoot -12.9041 0.577177
rtoes -25.1893
lfemur -2.08197 0.146648 -33.5954
ltibia 36.1644
lfoot -18.1899 -4.80751
ltoes -26.7588
842
root 20.8767 15.6308 -2.5871 -383.077 -435.507 386.171
lowerback 13.3498 -3.20437 -12.3115
upperback -2.80284 -6.427 -0.0319078
thorax -9.27119 -2.40697 8.18251
lowerneck -0.174429 0.775816 -3.27149
upperneck 11.0734 1.02987 -0.622731
head 3.5937 0.27207 0.391667
rclavicle 3.47935e-014 2.11209e-014
rhumerus -38.0014 -36.6339 -67.9566
rradius 32.9672
rwrist -1.24741
rhand 7.64056 55.9447
rfingers 7.12502
rthumb 32.8852 28.9203
lclavicle 3.47935e-014 2.11209e-014
lhumerus -41.5936 9.47583 71.8579
lradius 140.802
lwrist -28.6798
lhand -31.5587 41.1301
lfingers 7.12502
lthumb -4.82263 431.055
rfemur -43.8483 -8.27824 24.7018
rtibia 68.3584
rfoot -11.0223 1.21792
rtoes -26.2279
lfemur -1.98805 0.400915 -33.2731
ltibia 36.2607
lfoot -18.4007 -4.59627
ltoes -26.2968
843
root 20.9328 15.6334 -2.54778 -382.534 -435.652 385.501
lowerback 13.0896 -3.13581 -11.5053
upperback -2.86867 -6.19373 -0.286976
thorax -9.34698 -2.34194 7.39569
lowerneck 0.677497 0.460184 -2.60989
upperneck 10.194 0.593212 -1.08013
head 3.13473 0.0860631 0.110757
rclavicle -3.60484e-014 7.7526e-015
rhumerus -39.2156 -35.2106 -68.3583
rradius 33.8252
rwrist -2.02982
rhand 7.44411 56.0006
rfingers 7.12502
rthumb 32.6983 28.9373
lclavicle -3.60484e-014 7.7526e-015
lhumerus -40.1887 7.53573 75.7148
lradius 140.026
lwrist -29.1485
lhand -31.12 41.1247
lfingers 7.12502
lthumb -4.39899 431.059
rfemur -43.685 -9.10029 26.8021
rtibia 68.5255
rfoot -8.47505 2.05538
rtoes -24.9204
lfemur -1.98903 0.157549 -33.4215
ltibia 36.21
lfoot -18.5289 -3.99314
ltoes -25.7257
844
root 20.9726 15.6276 -2.51172 -383.478 -435.694 386.648
lowerback 12.0871 -2.84427 -11.9883
upperback -2.74547 -5.72009 -0.151169
thorax -8.6689 -2.1428 7.63581
lowerneck 0.485565 0.252928 -3.26398
upperneck 9.97228 0.303505 -0.563106
head 3.09764 -0.0561582 0.38397
rclavicle -3.71898e-014 1.46604e-014
rhumerus -39.8325 -33.7261 -68.3426
rradius 34.6983
rwrist -3.18646
rhand 7.25156 55.9975
rfingers 7.12502
rthumb 32.5151 28.8962
lclavicle -3.71898e-014 1.46604e-014
lhumerus -38.5568 5.64302 80.5858
lradius 139.16
lwrist -29.9884
lhand -30.5509 40.6998
lfingers 7.12502
lthumb -3.84942 430.645
rfemur -43.4059 -9.72349 28.3055
rtibia 68.0926
rfoot -5.45025 2.92954
rtoes -22.0207
lfemur -2.20517 -0.49126 -34.1413
ltibia 36.1227
lfoot -18.5735 -3.10042
ltoes -25.3369
845
root 20.9944 15.6379 -2.47773 -385.038 -435.565 388.633
lowerback 11.1004 -2.79813 -12.1106
upperback -2.91819 -5.58898 -0.508017
thorax -8.34462 -2.107 7.21644
lowerneck -0.35952 0.458699 -4.52758
upperneck 10.8382 0.487761 1.36972
head 3.56007 0.0418328 1.25346
rclavicle 1.42566e-014 1.88845e-015
rhumerus -41.181 -32.1796 -68.7216
rradius 35.7284
rwrist -4.3285
rhand 7.34317 55.9967
rfingers 7.12502
rthumb 32.6023 28.9134
lclavicle 1.42566e-014 1.88845e-015
lhumerus -37.8203 3.62635 84.3994
lradius 138.438
lwrist -30.5733
lhand -29.9987 40.134
lfingers 7.12502
lthumb -3.31617 430.088
rfemur -42.6526 -10.1905 29.3801
rtibia 66.6678
rfoot -0.463913 2.13298
rtoes -14.2369
lfemur -2.48936 -1.3438 -35.1009
ltibia 35.8777
lfoot -18.4865 -2.24797
ltoes -24.8495
